<svg xmlns="http://www.w3.org/2000/svg" viewBox="0 0 60 75" fill="none" x="0px" y="0px"><g clip-path="url(#a)"><path fill-rule="evenodd" clip-rule="evenodd" d="M46 25C44.8736 25.0142 43.7835 25.401 42.9 26.1C42.7 23.5 41.1 21 38 21C36.898 20.9807 35.8284 21.3729 35 22.1V5C35 3.67392 34.4732 2.40215 33.5355 1.46447C32.5979 0.526784 31.3261 0 30 0C28.6739 0 27.4022 0.526784 26.4645 1.46447C25.5268 2.40215 25 3.67392 25 5V22.1C24.1717 21.3729 23.102 20.9807 22 21C18.6 21 17 24.1 17 27V29H14C9.00002 29 9.00002 34.1 9.00002 39C8.93058 41.512 9.3029 44.0168 10.1 46.4L10.2 46.8C12.2 51.7 15.5 60 24 60H39C45 60 51 47.8 51 41V30C50.9794 28.6803 50.446 27.4205 49.5127 26.4873C48.5795 25.554 47.3197 25.0206 46 25ZM49 41C49 47.8 43 58 39 58H24C16.9 58 14.1 51.1 12.1 46L12 45.6C11.224 43.4902 10.8838 41.245 11 39C11 33.3 11.3 31 14 31H17V39C17 39.2652 17.1054 39.5196 17.2929 39.7071C17.4804 39.8946 17.7348 40 18 40C18.2652 40 18.5196 39.8946 18.7071 39.7071C18.8947 39.5196 19 39.2652 19 39V27C19 26.8 19 23 22 23C25 23 25 26.8 25 27V29C25 29.2652 25.1054 29.5196 25.2929 29.7071C25.4804 29.8946 25.7348 30 26 30C26.2652 30 26.5196 29.8946 26.7071 29.7071C26.8947 29.5196 27 29.2652 27 29V5C27.0537 4.22205 27.387 3.48978 27.9384 2.93838C28.4898 2.38698 29.2221 2.05368 30 2C30.778 2.05368 31.5102 2.38698 32.0616 2.93838C32.613 3.48978 32.9463 4.22205 33 5V29C33 29.2652 33.1054 29.5196 33.2929 29.7071C33.4804 29.8946 33.7348 30 34 30C34.2652 30 34.5196 29.8946 34.7071 29.7071C34.8947 29.5196 35 29.2652 35 29V27C35 26.8 35 23 38 23C41 23 41 26.8 41 27V33C41 33.2652 41.1054 33.5196 41.2929 33.7071C41.4804 33.8946 41.7348 34 42 34C42.2652 34 42.5196 33.8946 42.7071 33.7071C42.8947 33.5196 43 33.2652 43 33V30C43 29.2044 43.3161 28.4413 43.8787 27.8787C44.4413 27.3161 45.2044 27 46 27C46.7957 27 47.5587 27.3161 48.1213 27.8787C48.6839 28.4413 49 29.2044 49 30V41Z" fill="black"/></g><defs><clipPath id="a"><rect width="60" height="60" fill="black"/></clipPath></defs><text x="0" y="75" fill="#000000" font-size="5px" font-weight="bold" font-family="'Helvetica Neue', Helvetica, Arial-Unicode, Arial, Sans-serif">Created by Jonas Megstadesra</text><text x="0" y="80" fill="#000000" font-size="5px" font-weight="bold" font-family="'Helvetica Neue', Helvetica, Arial-Unicode, Arial, Sans-serif">from the Noun Project</text></svg>