<svg xmlns="http://www.w3.org/2000/svg" xmlns:xlink="http://www.w3.org/1999/xlink" version="1.1" x="0px" y="0px" viewBox="0 0 100 125" enable-background="new 0 0 100 100" xml:space="preserve"><path d="M71.6,65.3V65c-0.4-2.1-0.5-3.1-1.6-5.2c0-0.1-0.1-0.1-0.1-0.2l-0.5-0.8V42.5c0-3.6-2.9-6.4-6.4-6.4c-1.3,0-2.5,0.4-3.5,1  V11c0-3.3-2.7-6-6-6s-6,2.7-6,6v27.6c-1-0.6-2.2-1-3.4-1c-3,0-5.6,2.1-6.2,4.9c-1-0.7-2.3-1.1-3.6-1.1c-3.6,0-6.4,2.9-6.4,6.4v16.6  c0,13,2.2,18.6,3.8,22.7c0.9,2.3,1.6,4,1.6,6.4c0,0.8,0.7,1.5,1.5,1.5s1.5-0.7,1.5-1.5c0-3-0.8-5.1-1.8-7.5  c-1.3-3.4-3.1-7.9-3.5-17.2c1,0.6,2.1,0.9,3.3,0.9c3,0,5.6-2.1,6.2-4.9c1,0.7,2.3,1.1,3.6,1.1c3.6,0,6.4-2.9,6.4-6.4v-1  c1.5,0.6,3.2,1.1,4.7,1.4l3.4,6.4c-3.1,1.2-5.6,4.1-7.2,8.3c-0.3,0.8,0.1,1.6,0.9,1.9c0.8,0.3,1.6-0.1,1.9-0.9  c1-2.8,3.1-6.3,6.8-6.9c0.5-0.1,0.9-0.4,1.1-0.8c0.2-0.4,0.2-0.9,0-1.4l-4.5-8.7c-0.2-0.4-0.6-0.7-1-0.8c-2.8-0.7-5-1.3-6.5-2.3  c-0.1-0.1-0.3-0.3-0.5-0.3c-1.7-1.3-2.5-3.1-2.1-6.1l10.1,2.1c1.5,0.3,2.7,1,3.8,2.2l5.1,7.4c0.1,0.1,0.1,0.2,0.2,0.3l0.7,1  c0.8,1.6,0.9,2.3,1.3,4.2v0.3c1.6,11.1-1,16.1-3.1,20.2c-1.2,2.4-2.4,4.6-2.4,7.5c0,0.8,0.7,1.5,1.5,1.5s1.5-0.7,1.5-1.5  c0-2.1,0.9-3.9,2.1-6.1C70.4,83.2,73.3,77.4,71.6,65.3z M50.5,11c0-1.6,1.3-3,3-3s3,1.3,3,3v33.1c0,0.1,0,0.2,0,0.3v2.9l-6-1.2V11z   M37.6,63.2c0,1.9-1.5,3.4-3.4,3.4c-1.8,0-3.3-1.4-3.4-3.1v-0.3c0-0.1,0-0.2,0-0.3V47.8c0-1.9,1.5-3.4,3.4-3.4s3.4,1.5,3.4,3.4v11.6  V63.2z M46.5,45.1c-0.4-0.1-0.8,0-1.1,0.2s-0.6,0.6-0.6,1c-1.1,5.3,0.4,8.4,2.7,10.3v2.8c0,1.9-1.5,3.4-3.4,3.4s-3.4-1.5-3.4-3.4  V47.8V44c0-1.9,1.5-3.4,3.4-3.4s3.4,1.5,3.4,3.4v1.3L46.5,45.1z M63.6,50.7c-1.3-1.3-2.6-2.3-4.2-2.8v-5.4c0-1.9,1.5-3.4,3.4-3.4  s3.4,1.5,3.4,3.4v12.1l-2.6-3.7C63.7,50.8,63.6,50.8,63.6,50.7z"/><text x="0" y="115" fill="#000000" font-size="5px" font-weight="bold" font-family="'Helvetica Neue', Helvetica, Arial-Unicode, Arial, Sans-serif">Created by Till Teenck</text><text x="0" y="120" fill="#000000" font-size="5px" font-weight="bold" font-family="'Helvetica Neue', Helvetica, Arial-Unicode, Arial, Sans-serif">from the Noun Project</text></svg>